<svg xmlns="http://www.w3.org/2000/svg" xmlns:xlink="http://www.w3.org/1999/xlink" viewBox="0 0 234.05 234.05"><defs><style>.cls-1{fill:url(#linear-gradient);}</style><linearGradient id="linear-gradient" x1="-45.86" y1="-141.09" x2="332.19" y2="457.99" gradientUnits="userSpaceOnUse"><stop offset="0" stop-color="#263238"/><stop offset="0.54" stop-color="#2e3b42"/><stop offset="1" stop-color="#37474f"/></linearGradient></defs><g id="Layer_2" data-name="Layer 2"><g id="LAYER_1-2" data-name="LAYER 1"><path class="cls-1" d="M198.22,0H35.83A35.83,35.83,0,0,0,0,35.83V198.22a35.83,35.83,0,0,0,35.83,35.83H198.22a35.83,35.83,0,0,0,35.83-35.83V35.83A35.83,35.83,0,0,0,198.22,0ZM84.56,140.14a3,3,0,0,1-2.25-1L46.35,100a3,3,0,0,1,0-4.13l36-39.15a3,3,0,0,1,2.25-1H117.3a3.06,3.06,0,0,1,2.24,5.13l-32.31,35a3.06,3.06,0,0,0,0,4.15l32.31,35a3.06,3.06,0,0,1-2.24,5.13ZM193.3,140l-36,39.15a3.06,3.06,0,0,1-2.25,1H122.35A3.06,3.06,0,0,1,120.1,175l32.31-35a3.05,3.05,0,0,0,0-4.14l-32.31-35a3.05,3.05,0,0,1,2.25-5.12h32.74a3.06,3.06,0,0,1,2.25,1l36,39.15A3.07,3.07,0,0,1,193.3,140Z"/></g></g></svg>