<svg xmlns="http://www.w3.org/2000/svg" viewBox="0 0 371.01 79.06"><defs><style>.cls-1{fill:#fff;}</style></defs><g id="Layer_2" data-name="Layer 2"><g id="LAYER_3" data-name="LAYER 3"><path class="cls-1" d="M139.1.48c11.7,0,20.52,6.58,23.32,17.22H149.26A10.83,10.83,0,0,0,139,11.4c-7.35,0-12.39,5.46-12.39,14.15s5,14.14,12.39,14.14a10.83,10.83,0,0,0,10.3-6.3h13.16C159.62,44,150.8,50.54,139.1,50.54c-14.49,0-24.71-10.29-24.71-25S124.61.48,139.1.48Z"/><path class="cls-1" d="M182.35,1V41H198v9.24H170.38V1Z"/><path class="cls-1" d="M239.81,41.51H221.46l-2.94,8.68H206L223.77,1h13.87l17.79,49.15H242.75Zm-9.17-27.24-6,18h12.11Z"/><path class="cls-1" d="M288.66,50.68c-13.94,0-25.28-10.43-25.28-25.2S274.72.34,288.66.34,313.8,10.7,313.8,25.48,302.59,50.68,288.66,50.68Zm0-10.92c7.84,0,12.95-5.67,12.95-14.28s-5.11-14.29-12.95-14.29-13,5.53-13,14.29S280.68,39.76,288.66,39.76Z"/><path class="cls-1" d="M343.11,1h12V34.51c0,10.57-6.44,16.17-16.17,16.17-10.09,0-17.16-5.88-17.16-16.94h11.9c0,4.2,1.83,6.23,4.91,6.23,2.87,0,4.55-1.82,4.55-5.46Z"/><path class="cls-1" d="M116.15,63.72v9.36h3.65V74.5h-5.41V63.72Z"/><path class="cls-1" d="M129.64,74.64a4.16,4.16,0,0,1-4.28-4.42,4.36,4.36,0,1,1,8.72,0A4.28,4.28,0,0,1,129.64,74.64Zm0-1.53a2.63,2.63,0,0,0,2.62-2.89,2.58,2.58,0,0,0-2.57-2.87c-1.34,0-2.53.93-2.53,2.87S128.31,73.11,129.64,73.11Z"/><path class="cls-1" d="M146.56,69.73c0-1.57-.86-2.38-2.14-2.38s-2.16.81-2.16,2.38V74.5h-1.77V66h1.77v1a3.5,3.5,0,0,1,6.05,2.53v5h-1.75Z"/><path class="cls-1" d="M158.66,65.82a3.6,3.6,0,0,1,3,1.38V66h1.79v8.68a3.88,3.88,0,0,1-4.17,4.09c-2.29,0-4-1.14-4.19-3h1.75a2.39,2.39,0,0,0,2.44,1.49,2.28,2.28,0,0,0,2.38-2.55V73.22a3.65,3.65,0,0,1-3,1.42,4.13,4.13,0,0,1-4-4.45A4.06,4.06,0,0,1,158.66,65.82Zm.37,1.53a2.63,2.63,0,0,0-2.59,2.84A2.7,2.7,0,0,0,159,73.11a2.9,2.9,0,0,0,0-5.76Z"/><path class="cls-1" d="M185.59,72.3h-4.52l-.77,2.2h-1.85l3.86-10.79h2.05l3.86,10.79h-1.86Zm-2.25-6.45-1.77,5h3.52Z"/><path class="cls-1" d="M200.62,69.73c0-1.57-.85-2.38-2.14-2.38s-2.15.81-2.15,2.38V74.5h-1.77V66h1.77v1a3.5,3.5,0,0,1,6,2.53v5h-1.76Z"/><path class="cls-1" d="M222.89,74.61a5.52,5.52,0,1,1,5.51-5.52A5.39,5.39,0,0,1,222.89,74.61Zm0-1.53a4,4,0,1,0-3.69-4A3.65,3.65,0,0,0,222.89,73.08Z"/><path class="cls-1" d="M240.87,69.73c0-1.57-.86-2.38-2.14-2.38s-2.16.81-2.16,2.38V74.5H234.8V66h1.77v1a3.5,3.5,0,0,1,6.05,2.53v5h-1.75Z"/><path class="cls-1" d="M249.53,63h1.77V74.5h-1.77Z"/><path class="cls-1" d="M258.05,63.69a1.13,1.13,0,1,1,1.13,1.13A1.12,1.12,0,0,1,258.05,63.69Zm.23,2.27h1.77V74.5h-1.77Z"/><path class="cls-1" d="M273.1,69.73c0-1.57-.85-2.38-2.14-2.38s-2.16.81-2.16,2.38V74.5H267V66h1.77v1a3.5,3.5,0,0,1,6.05,2.53v5H273.1Z"/><path class="cls-1" d="M285.44,74.64a4.15,4.15,0,0,1-4.27-4.42,4.09,4.09,0,0,1,4.27-4.4A4,4,0,0,1,289.6,70a5,5,0,0,1-.07.87H283a2.35,2.35,0,0,0,2.44,2.26,2.05,2.05,0,0,0,2-1.19h1.91A3.9,3.9,0,0,1,285.44,74.64ZM283,69.46h4.73a2.21,2.21,0,0,0-2.39-2.15A2.31,2.31,0,0,0,283,69.46Z"/><path class="cls-1" d="M308.78,63.72h1.78V71.5a3.18,3.18,0,0,1-6.36,0H306c0,.89.44,1.55,1.39,1.55a1.36,1.36,0,0,0,1.4-1.55Z"/><path class="cls-1" d="M325.83,74.5h-1.76v-1a3.2,3.2,0,0,1-2.53,1.15A3.35,3.35,0,0,1,318,71V66h1.76v4.76c0,1.57.85,2.37,2.14,2.37a2.07,2.07,0,0,0,2.16-2.37V66h1.76Z"/><path class="cls-1" d="M336.28,65.82a3.92,3.92,0,0,1,3,1.33V63H341V74.5h-1.78V73.22a3.57,3.57,0,0,1-3,1.42,4.13,4.13,0,0,1-4-4.45A4.06,4.06,0,0,1,336.28,65.82Zm.36,1.53a2.63,2.63,0,0,0-2.59,2.84,2.69,2.69,0,0,0,2.59,2.92,2.9,2.9,0,0,0,0-5.76Z"/><path class="cls-1" d="M351.44,65.82a3.6,3.6,0,0,1,3,1.38V66h1.79v8.68A3.88,3.88,0,0,1,352,78.73c-2.29,0-4-1.14-4.19-3h1.75A2.39,2.39,0,0,0,352,77.19a2.28,2.28,0,0,0,2.38-2.55V73.22a3.65,3.65,0,0,1-3,1.42,4.13,4.13,0,0,1-4-4.45A4.06,4.06,0,0,1,351.44,65.82Zm.37,1.53a2.63,2.63,0,0,0-2.59,2.84,2.69,2.69,0,0,0,2.59,2.92,2.9,2.9,0,0,0,0-5.76Z"/><path class="cls-1" d="M366.85,74.64a4.14,4.14,0,0,1-4.26-4.42,4.09,4.09,0,0,1,4.26-4.4A4,4,0,0,1,371,70a6.25,6.25,0,0,1-.06.87h-6.53a2.34,2.34,0,0,0,2.43,2.26,2.07,2.07,0,0,0,2-1.19h1.91A3.9,3.9,0,0,1,366.85,74.64Zm-2.42-5.18h4.73a2.21,2.21,0,0,0-2.39-2.15A2.33,2.33,0,0,0,364.43,69.46Z"/><path class="cls-1" d="M47,3.26,26.49,25.5a1.93,1.93,0,0,0,0,2.63L47,50.37a1.94,1.94,0,0,1-1.42,3.26H24.79A1.94,1.94,0,0,1,23.36,53L.51,28.13a2,2,0,0,1,0-2.63L23.36.63A1.94,1.94,0,0,1,24.79,0h20.8A1.94,1.94,0,0,1,47,3.26Z"/><path class="cls-1" d="M47.37,28.69,67.9,50.93a1.94,1.94,0,0,1,0,2.64L47.37,75.8a1.94,1.94,0,0,0,1.43,3.26H69.6A1.94,1.94,0,0,0,71,78.44L93.87,53.56a1.92,1.92,0,0,0,0-2.62L71,26.06a1.94,1.94,0,0,0-1.43-.62H48.8A1.94,1.94,0,0,0,47.37,28.69Z"/></g></g></svg>