<svg xmlns="http://www.w3.org/2000/svg" viewBox="0 0 357.53 81.99"><defs><style>.cls-1{fill:#fff;}</style></defs><g id="Layer_2" data-name="Layer 2"><g id="LAYER_4" data-name="LAYER 4"><path class="cls-1" d="M128.23,14.42c12.42,0,21.78,7,24.76,18.29H139A11.49,11.49,0,0,0,128.08,26c-7.8,0-13.16,5.79-13.16,15s5.36,15,13.16,15A11.51,11.51,0,0,0,139,49.36h14c-3,11.3-12.34,18.21-24.76,18.21C112.84,67.57,102,56.64,102,41S112.84,14.42,128.23,14.42Z"/><path class="cls-1" d="M174.15,15V57.39H190.8V67.2H161.43V15Z"/><path class="cls-1" d="M235.15,58H215.67l-3.12,9.22H199.24L218.13,15h14.72L251.73,67.2H238.27Zm-9.74-28.92L219,48.17h12.86Z"/><path class="cls-1" d="M287,67.72c-14.79,0-26.83-11.08-26.83-26.76s12-26.69,26.83-26.69S313.7,25.27,313.7,41,301.81,67.72,287,67.72Zm0-11.6c8.33,0,13.76-6,13.76-15.16,0-9.3-5.43-15.17-13.76-15.17S273.19,31.66,273.19,41C273.19,50.1,278.54,56.12,287,56.12Z"/><path class="cls-1" d="M344.82,15h12.71V50.55c0,11.22-6.84,17.17-17.17,17.17-10.7,0-18.21-6.24-18.21-18h12.63c0,4.46,1.94,6.62,5.21,6.62,3.05,0,4.83-1.94,4.83-5.8Z"/><path class="cls-1" d="M69.44,0H12.55A12.55,12.55,0,0,0,0,12.55V69.44A12.55,12.55,0,0,0,12.55,82H69.44A12.55,12.55,0,0,0,82,69.44V12.55A12.55,12.55,0,0,0,69.44,0ZM29.62,49.09a1.08,1.08,0,0,1-.79-.34L16.24,35a1.06,1.06,0,0,1,0-1.45L28.83,19.87a1.09,1.09,0,0,1,.79-.35H41.09a1.07,1.07,0,0,1,.79,1.8L30.56,33.58a1.06,1.06,0,0,0,0,1.45L41.88,47.3a1.07,1.07,0,0,1-.79,1.79Zm38.09,0L55.12,62.77a1.09,1.09,0,0,1-.79.35H42.86a1.07,1.07,0,0,1-.79-1.8L53.39,49.06a1.06,1.06,0,0,0,0-1.45L42.07,35.34a1.07,1.07,0,0,1,.79-1.79H54.33a1.08,1.08,0,0,1,.79.34L67.71,47.61A1.06,1.06,0,0,1,67.71,49.06Z"/></g></g></svg>